<?xml version="1.0" standalone="no"?>
<!DOCTYPE svg PUBLIC "-//W3C//DTD SVG 20010904//EN"
 "http://www.w3.org/TR/2001/REC-SVG-20010904/DTD/svg10.dtd">
<svg version="1.0" xmlns="http://www.w3.org/2000/svg"
 width="268.000000pt" height="188.000000pt" viewBox="0 0 268.000000 188.000000"
 preserveAspectRatio="xMidYMid meet">
<metadata>
Created by potrace 1.10, written by Peter Selinger 2001-2011
</metadata>
<g transform="translate(0.000000,188.000000) scale(0.050000,-0.050000)"
fill="#ffffff" stroke="none">
<path d="M1543 3736 c26 -9 -82 -11 -239 -5 -217 7 -283 4 -272 -14 11 -17
-22 -20 -128 -11 -91 7 -148 4 -156 -9 -7 -12 -39 -16 -70 -10 -35 7 -58 4
-58 -10 0 -12 -13 -16 -29 -10 -17 6 -35 2 -42 -8 -6 -11 -20 -14 -30 -8 -11
6 -19 1 -19 -11 0 -12 -9 -17 -20 -10 -11 7 -20 2 -20 -10 0 -12 -9 -17 -20
-10 -11 7 -20 3 -20 -9 0 -11 -7 -19 -16 -16 -8 3 -42 -22 -75 -56 -32 -34
-45 -43 -29 -20 30 41 30 41 -15 3 -24 -20 -40 -44 -36 -51 5 -8 -13 -37 -39
-65 -26 -29 -42 -57 -35 -64 6 -7 1 -12 -11 -12 -13 0 -18 -13 -11 -30 6 -16
2 -30 -10 -30 -12 0 -16 -15 -9 -33 9 -23 5 -29 -10 -19 -15 9 -20 4 -12 -15
6 -16 2 -35 -10 -42 -11 -7 -15 -25 -9 -42 6 -16 1 -29 -12 -29 -14 0 -19 -15
-12 -38 7 -21 4 -44 -6 -50 -11 -7 -14 -48 -8 -92 7 -54 3 -80 -13 -80 -16 0
-20 -39 -11 -135 8 -84 5 -125 -6 -109 -11 16 -18 -250 -18 -684 0 -457 7
-706 20 -698 12 8 14 -36 6 -121 -10 -95 -8 -133 9 -133 16 0 20 -26 13 -80
-6 -44 -3 -85 8 -92 10 -6 13 -29 6 -50 -7 -23 -2 -38 12 -38 13 0 18 -13 12
-29 -6 -17 -2 -35 9 -42 12 -7 16 -26 10 -42 -8 -19 -3 -24 12 -15 15 10 19 4
10 -19 -7 -18 -3 -33 9 -33 12 0 16 -13 10 -30 -7 -16 -2 -30 9 -30 11 0 15
-9 8 -20 -7 -11 -3 -20 9 -20 11 0 21 -7 21 -16 0 -9 46 -65 103 -123 57 -59
97 -95 89 -79 -8 15 -2 12 13 -7 16 -19 35 -29 42 -21 7 7 13 2 13 -10 0 -13
13 -18 30 -11 16 6 30 2 30 -10 0 -12 14 -17 30 -10 17 6 30 1 30 -11 0 -15
19 -18 53 -9 39 9 49 6 38 -11 -11 -18 3 -21 55 -11 38 7 75 4 81 -6 6 -10 62
-14 125 -9 81 7 110 3 100 -13 -11 -17 67 -20 292 -13 168 5 285 3 259 -6 -26
-8 471 -14 1104 -14 633 0 1136 7 1117 15 -19 9 85 11 230 6 170 -6 269 -2
277 11 7 11 73 20 146 20 221 -1 283 4 283 24 0 10 13 13 29 7 17 -6 35 -2 42
8 6 11 20 14 30 8 11 -6 19 -1 19 11 0 12 9 17 20 10 11 -7 20 -2 20 10 0 12
9 17 20 10 11 -7 20 -1 20 12 0 14 5 19 12 13 7 -7 34 12 62 41 27 30 42 41
34 24 -10 -20 0 -17 29 8 48 42 56 61 18 42 -14 -7 -1 9 29 36 29 28 48 55 41
62 -6 7 -1 12 13 12 13 0 19 9 12 20 -7 11 -2 20 10 20 12 0 17 8 11 19 -6 10
-2 24 9 31 11 7 15 21 9 31 -6 11 -2 19 9 19 11 0 16 13 10 28 -6 15 -2 34 10
41 11 7 15 25 9 42 -6 16 -1 29 12 29 14 0 19 15 12 38 -7 21 -4 44 7 51 11 6
14 42 8 79 -6 38 -1 73 11 80 15 9 18 56 9 136 -8 78 -5 118 7 110 13 -8 20
243 20 718 0 449 -6 720 -18 704 -11 -16 -14 25 -6 109 9 96 5 135 -11 135
-15 0 -19 24 -12 70 6 38 3 74 -7 81 -11 6 -13 35 -6 63 10 40 7 48 -13 36
-19 -12 -23 -7 -14 16 7 18 3 38 -8 45 -12 7 -16 26 -10 41 6 15 1 28 -10 28
-11 0 -15 8 -9 19 6 10 2 24 -9 31 -11 7 -15 21 -9 31 6 11 1 19 -11 19 -12 0
-17 9 -10 20 7 11 2 20 -10 20 -12 0 -17 8 -11 18 6 10 -3 23 -19 29 -17 7
-28 23 -25 37 3 14 -7 24 -21 21 -15 -4 -22 2 -16 12 6 10 -8 35 -32 55 -29
26 -38 28 -28 8 8 -16 -3 -10 -24 14 -21 24 -45 39 -52 32 -6 -7 -12 -2 -12
12 0 13 -9 19 -20 12 -11 -7 -20 -2 -20 10 0 12 -9 17 -20 10 -11 -7 -20 -2
-20 10 0 12 -8 17 -19 11 -10 -6 -24 -3 -30 8 -7 10 -27 14 -45 7 -23 -9 -28
-5 -17 12 11 18 -2 21 -55 11 -40 -7 -75 -4 -82 8 -8 13 -68 17 -157 10 -108
-8 -137 -5 -115 12 22 16 -50 19 -270 12 -165 -6 -279 -4 -253 5 26 8 -485 15
-1137 15 -652 0 -1163 -7 -1137 -15z m659 -1085 c10 6 18 1 18 -11 0 -12 9
-17 20 -10 11 7 20 2 20 -10 0 -12 9 -17 20 -10 11 7 20 1 20 -12 0 -14 6 -19
13 -12 15 15 247 -107 247 -131 0 -10 9 -12 20 -5 11 7 20 2 20 -10 0 -12 9
-17 20 -10 11 7 20 2 20 -10 0 -12 9 -17 20 -10 11 7 20 2 20 -10 0 -12 9 -17
20 -10 11 7 20 2 20 -10 0 -12 9 -17 20 -10 11 7 20 2 20 -10 0 -12 9 -17 20
-10 11 7 20 2 20 -10 0 -12 9 -17 20 -10 11 7 20 3 20 -9 0 -11 7 -20 15 -18
29 7 125 -42 125 -64 0 -12 9 -16 20 -9 11 7 20 2 20 -10 0 -12 9 -17 20 -10
11 7 20 2 20 -10 0 -12 9 -17 20 -10 11 7 20 2 20 -10 0 -12 9 -17 20 -10 11
7 20 2 20 -10 0 -12 9 -17 20 -10 11 7 20 2 20 -10 0 -12 9 -17 20 -10 11 7
20 2 20 -10 0 -12 9 -17 20 -10 11 7 20 2 20 -10 0 -12 9 -17 20 -10 11 7 20
2 20 -10 0 -12 9 -17 20 -10 11 7 20 1 20 -12 0 -14 6 -19 13 -12 16 16 167
-66 167 -91 0 -9 8 -12 19 -6 10 6 23 4 29 -5 12 -21 -218 -148 -235 -130 -7
7 -13 2 -13 -12 0 -13 -9 -19 -20 -12 -11 7 -20 2 -20 -10 0 -12 -9 -17 -20
-10 -11 7 -20 2 -20 -10 0 -12 -9 -17 -20 -10 -11 7 -20 2 -20 -10 0 -12 -9
-17 -20 -10 -11 7 -20 2 -20 -10 0 -12 -9 -17 -20 -10 -11 7 -20 2 -20 -10 0
-12 -9 -17 -20 -10 -11 7 -20 1 -20 -12 0 -14 -6 -19 -12 -12 -7 7 -26 -1 -42
-17 -16 -16 -37 -24 -48 -18 -10 6 -18 0 -18 -13 0 -14 -6 -19 -12 -12 -7 7
-26 -1 -42 -17 -16 -16 -39 -23 -51 -16 -12 7 -15 4 -8 -8 13 -21 -58 -58 -92
-49 -8 2 -15 -6 -15 -17 0 -12 -9 -16 -20 -9 -11 7 -20 2 -20 -10 0 -12 -9
-17 -20 -10 -11 7 -20 2 -20 -10 0 -12 -9 -17 -20 -10 -11 7 -20 2 -20 -10 0
-12 -9 -17 -20 -10 -11 7 -20 2 -20 -10 0 -12 -9 -17 -20 -10 -11 7 -20 2 -20
-10 0 -12 -9 -17 -20 -10 -11 7 -20 1 -20 -12 0 -14 -6 -19 -12 -12 -7 7 -26
-1 -42 -17 -16 -16 -37 -24 -48 -18 -10 6 -18 0 -18 -13 0 -14 -6 -19 -12 -12
-7 7 -26 -1 -42 -17 -16 -16 -39 -23 -51 -16 -12 7 -15 4 -8 -8 13 -21 -58
-58 -92 -49 -8 2 -15 -5 -15 -16 0 -11 -7 -20 -15 -20 -18 0 -10 1436 7 1480
9 22 15 23 22 5 5 -14 18 -20 28 -14z"/>
</g>
</svg>
